<svg xmlns="http://www.w3.org/2000/svg" viewBox="0 0 1600 900" preserveAspectRatio="xMidYMid slice"><defs><linearGradient id="g23" x1="0" y1="0" x2="0" y2="1"><stop offset="0" stop-color="#6FA8DC" stop-opacity="1"/><stop offset="0.55" stop-color="#BFE0F2" stop-opacity="1"/><stop offset="1" stop-color="#E9F2D8" stop-opacity="1"/></linearGradient><radialGradient id="r24" cx="0.5" cy="0.5" r="0.5"><stop offset="0" stop-color="#FFFBE0" stop-opacity="0.9"/><stop offset="0.35" stop-color="#FFFBE0" stop-opacity="0.405"/><stop offset="1" stop-color="#FFFBE0" stop-opacity="0"/></radialGradient><linearGradient id="g22" x1="0" y1="0" x2="0" y2="1"><stop offset="0" stop-color="#D9C38F" stop-opacity="1"/><stop offset="1" stop-color="#B79B62" stop-opacity="1"/></linearGradient><radialGradient id="r25" cx="0.5" cy="0.45" r="0.75"><stop offset="0.55" stop-color="#000" stop-opacity="0"/><stop offset="1" stop-color="#000" stop-opacity="0.55"/></radialGradient></defs><rect width="1600" height="900" fill="url(#g23)"/><circle cx="300" cy="160" r="260" fill="url(#r24)"/><g fill="#fff" opacity=".85"><ellipse cx="520" cy="180" rx="108" ry="40.8"/><ellipse cx="592" cy="156" rx="84" ry="48"/><ellipse cx="448" cy="170.4" rx="72" ry="36"/></g><g fill="#fff" opacity=".85"><ellipse cx="1150" cy="130" rx="81" ry="30.6"/><ellipse cx="1204" cy="112" rx="63" ry="36"/><ellipse cx="1096" cy="122.8" rx="54" ry="27"/></g><g fill="#fff" opacity=".85"><ellipse cx="1380" cy="260" rx="62.99999999999999" ry="23.799999999999997"/><ellipse cx="1422" cy="246" rx="49" ry="28"/><ellipse cx="1338" cy="254.4" rx="42" ry="21"/></g><path d="M0 900 L0 470 L0 452.7 L110 435.7 L220 445.1 L330 436.8 L440 452.6 L550 442.2 L660 451.4 L770 389.7 L880 405.1 L990 442.3 L1100 431.1 L1210 425.9 L1320 425.4 L1430 424.5 L1540 435.7 L1650 424.1 L1600 900 Z" fill="#9FB7C6" opacity="0.8"/><path d="M0 900 L0 560 Q200 456 400 543 Q600 515 800 547 Q1000 481 1200 557 Q1400 481 1600 548 L1600 900 Z" fill="#9CC27A" opacity="1"/><path d="M0 900 L0 650 Q267 595 533 647 Q800 580 1067 617 Q1333 564 1600 619 L1600 900 Z" fill="#7FAE5C" opacity="1"/><path d="M620 900 C700 780 900 740 820 660 C770 610 800 580 860 565 L880 565 C830 590 820 620 860 660 C960 750 820 800 900 900 Z" fill="url(#g22)"/><path d="M0 900 L0 800 Q400 738 800 776 Q1200 740 1600 796 L1600 900 Z" fill="#5E8E45" opacity="1"/><rect x="1000" y="690" width="8" height="60" fill="#6B5334"/><rect x="1080" y="708" width="8" height="60" fill="#6B5334"/><rect x="1160" y="726" width="8" height="60" fill="#6B5334"/><rect x="1240" y="744" width="8" height="60" fill="#6B5334"/><rect x="1320" y="762" width="8" height="60" fill="#6B5334"/><rect x="1400" y="780" width="8" height="60" fill="#6B5334"/><rect x="1480" y="798" width="8" height="60" fill="#6B5334"/><rect x="1560" y="816" width="8" height="60" fill="#6B5334"/><rect x="1640" y="834" width="8" height="60" fill="#6B5334"/><path d="M1000 710 L1648 872 M1000 730 L1648 892" stroke="#6B5334" stroke-width="6"/><path d="M180 520 L224.1 634 L205.2 634 L243 736 L217.8 736 L258.12 820 L101.88 820 L142.2 736 L117 736 L154.8 634 L135.9 634 Z" fill="#3F6A34"/><rect x="174" y="818" width="12" height="24" fill="#3F6A34"/><path d="M260 610 L295.28 701.2 L280.16 701.2 L310.4 782.8 L290.24 782.8 L322.496 850 L197.50400000000002 850 L229.76 782.8 L209.6 782.8 L239.84 701.2 L224.72 701.2 Z" fill="#355C2C"/><rect x="255.2" y="848" width="9.6" height="19.2" fill="#355C2C"/><rect width="1600" height="900" fill="url(#r25)"/></svg>