<svg xmlns="http://www.w3.org/2000/svg" viewBox="0 0 1600 900" preserveAspectRatio="xMidYMid slice"><defs><radialGradient id="r13" cx="0.5" cy="0.5" r="0.5"><stop offset="0" stop-color="#FF9A3D" stop-opacity="0.45"/><stop offset="0.35" stop-color="#FF9A3D" stop-opacity="0.2025"/><stop offset="1" stop-color="#FF9A3D" stop-opacity="0"/></radialGradient><radialGradient id="r12" cx="0.5" cy="0.75" r="0.6"><stop offset="0" stop-color="#FFE7A0" stop-opacity="1"/><stop offset="0.35" stop-color="#FF9A3D" stop-opacity="1"/><stop offset="1" stop-color="#C2411E" stop-opacity="0"/></radialGradient><radialGradient id="r14" cx="0.5" cy="0.5" r="0.5"><stop offset="0" stop-color="#FFD27A" stop-opacity="0.5"/><stop offset="0.35" stop-color="#FFD27A" stop-opacity="0.225"/><stop offset="1" stop-color="#FFD27A" stop-opacity="0"/></radialGradient><radialGradient id="r15" cx="0.5" cy="0.5" r="0.5"><stop offset="0" stop-color="#FFD27A" stop-opacity="0.5"/><stop offset="0.35" stop-color="#FFD27A" stop-opacity="0.225"/><stop offset="1" stop-color="#FFD27A" stop-opacity="0"/></radialGradient><radialGradient id="r16" cx="0.5" cy="0.5" r="0.5"><stop offset="0" stop-color="#FFD27A" stop-opacity="0.5"/><stop offset="0.35" stop-color="#FFD27A" stop-opacity="0.225"/><stop offset="1" stop-color="#FFD27A" stop-opacity="0"/></radialGradient><radialGradient id="r17" cx="0.5" cy="0.45" r="0.75"><stop offset="0.55" stop-color="#000" stop-opacity="0"/><stop offset="1" stop-color="#000" stop-opacity="0.55"/></radialGradient></defs><rect width="1600" height="900" fill="#4A2F1F"/><rect x="0" y="0" width="78" height="900" fill="#5A3A26"/><rect x="80" y="0" width="78" height="900" fill="#523422"/><rect x="160" y="0" width="78" height="900" fill="#523422"/><rect x="240" y="0" width="78" height="900" fill="#523422"/><rect x="320" y="0" width="78" height="900" fill="#523422"/><rect x="400" y="0" width="78" height="900" fill="#5A3A26"/><rect x="480" y="0" width="78" height="900" fill="#523422"/><rect x="560" y="0" width="78" height="900" fill="#5A3A26"/><rect x="640" y="0" width="78" height="900" fill="#5A3A26"/><rect x="720" y="0" width="78" height="900" fill="#523422"/><rect x="800" y="0" width="78" height="900" fill="#5A3A26"/><rect x="880" y="0" width="78" height="900" fill="#5A3A26"/><rect x="960" y="0" width="78" height="900" fill="#523422"/><rect x="1040" y="0" width="78" height="900" fill="#5A3A26"/><rect x="1120" y="0" width="78" height="900" fill="#523422"/><rect x="1200" y="0" width="78" height="900" fill="#523422"/><rect x="1280" y="0" width="78" height="900" fill="#523422"/><rect x="1360" y="0" width="78" height="900" fill="#5A3A26"/><rect x="1440" y="0" width="78" height="900" fill="#5A3A26"/><rect x="1520" y="0" width="78" height="900" fill="#5A3A26"/><rect x="0" y="140" width="1600" height="34" fill="#3A2416"/><rect x="0" y="300" width="1600" height="34" fill="#3A2416"/><rect x="120" y="0" width="44" height="900" fill="#3F2819"/><rect x="700" y="0" width="44" height="900" fill="#3F2819"/><rect x="1300" y="0" width="44" height="900" fill="#3F2819"/><rect x="1220" y="380" width="200" height="220" rx="6" fill="#1E2A48"/><path d="M1320 380 V600 M1220 490 H1420" stroke="#3A2416" stroke-width="10"/><circle cx="1321.6717819734822" cy="446.6550105215212" r="1.8" fill="#fff" opacity="0.53"/><circle cx="1352.714457947146" cy="510.5458677553967" r="1.0" fill="#fff" opacity="0.62"/><circle cx="1248.4158156583962" cy="443.8223145411687" r="2.1" fill="#fff" opacity="0.78"/><circle cx="1253.964756240443" cy="435.7171872155824" r="1.0" fill="#fff" opacity="0.82"/><circle cx="1260.578343105633" cy="444.9881811304111" r="2.1" fill="#fff" opacity="0.57"/><circle cx="1363.1879146783672" cy="567.0098445401871" r="2.1" fill="#fff" opacity="0.82"/><circle cx="1328.6429379621304" cy="483.9665455912108" r="1.3" fill="#fff" opacity="0.52"/><circle cx="1387.0139178794234" cy="404.340685631958" r="1.5" fill="#fff" opacity="0.95"/><circle cx="1363.905464048495" cy="562.4805743330461" r="1.7" fill="#fff" opacity="0.81"/><circle cx="1396.1997460612772" cy="547.1846358834965" r="2.1" fill="#fff" opacity="0.96"/><circle cx="1323.5549964023921" cy="444.4852955750762" r="1.6" fill="#fff" opacity="0.91"/><circle cx="1311.2262819844518" cy="413.3236477147578" r="0.9" fill="#fff" opacity="0.64"/><circle cx="800" cy="620" r="700" fill="url(#r13)"/><path d="M560 330 L1040 330 L1040 740 L560 740 Z" fill="#6E6259"/><path d="M540 310 L1060 310 L1060 350 L540 350 Z" fill="#4A2E1C"/><path d="M640 740 L640 520 Q800 420 960 520 L960 740 Z" fill="#1A120E"/><ellipse cx="800" cy="700" rx="150" ry="120" fill="url(#r12)"/><path d="M740 740 Q760 640 790 690 Q800 600 830 680 Q860 620 870 740 Z" fill="#FFC45A"/><path d="M770 740 Q790 680 805 710 Q815 660 835 740 Z" fill="#FFF0B0"/><rect x="560" y="360" width="56" height="30" fill="#5E534B" opacity=".6"/><rect x="620" y="360" width="56" height="30" fill="#5E534B" opacity=".6"/><rect x="680" y="360" width="56" height="30" fill="#5E534B" opacity=".6"/><rect x="740" y="360" width="56" height="30" fill="#5E534B" opacity=".6"/><rect x="800" y="360" width="56" height="30" fill="#5E534B" opacity=".6"/><rect x="860" y="360" width="56" height="30" fill="#5E534B" opacity=".6"/><rect x="920" y="360" width="56" height="30" fill="#5E534B" opacity=".6"/><rect x="980" y="360" width="56" height="30" fill="#5E534B" opacity=".6"/><rect x="560" y="550" width="56" height="30" fill="#5E534B" opacity=".6"/><rect x="620" y="550" width="56" height="30" fill="#5E534B" opacity=".6"/><rect x="680" y="550" width="56" height="30" fill="#5E534B" opacity=".6"/><rect x="740" y="550" width="56" height="30" fill="#5E534B" opacity=".6"/><rect x="800" y="550" width="56" height="30" fill="#5E534B" opacity=".6"/><rect x="860" y="550" width="56" height="30" fill="#5E534B" opacity=".6"/><rect x="920" y="550" width="56" height="30" fill="#5E534B" opacity=".6"/><rect x="980" y="550" width="56" height="30" fill="#5E534B" opacity=".6"/><line x1="300" y1="174" x2="300" y2="250" stroke="#2A1A10" stroke-width="3"/><rect x="286" y="250" width="28" height="34" rx="4" fill="#FFD27A"/><line x1="1260" y1="174" x2="1260" y2="250" stroke="#2A1A10" stroke-width="3"/><rect x="1246" y="250" width="28" height="34" rx="4" fill="#FFD27A"/><line x1="1480" y1="174" x2="1480" y2="250" stroke="#2A1A10" stroke-width="3"/><rect x="1466" y="250" width="28" height="34" rx="4" fill="#FFD27A"/><circle cx="300" cy="270" r="160" fill="url(#r14)"/><circle cx="1260" cy="270" r="160" fill="url(#r15)"/><circle cx="1480" cy="270" r="160" fill="url(#r16)"/><rect x="0" y="760" width="1600" height="140" fill="#2E1D12"/><rect x="80" y="700" width="338" height="28.6" rx="4" fill="#2C1B11"/><rect x="106" y="726" width="20.8" height="143" fill="#24160E"/><rect x="371.2" y="726" width="20.8" height="143" fill="#24160E"/><rect x="158" y="655.8" width="28.6" height="44.2" rx="3" fill="#C9A45A" opacity=".85"/><rect x="1150" y="720" width="299" height="25.299999999999997" rx="4" fill="#2C1B11"/><rect x="1173" y="743" width="18.4" height="126.49999999999999" fill="#24160E"/><rect x="1407.6" y="743" width="18.4" height="126.49999999999999" fill="#24160E"/><rect x="1219" y="680.9" width="25.299999999999997" height="39.099999999999994" rx="3" fill="#C9A45A" opacity=".85"/><ellipse cx="1500" cy="780" rx="58" ry="80" fill="#3A2415"/><rect x="1442" y="750" width="116" height="8" fill="#1E130B"/><rect x="1442" y="804" width="116" height="8" fill="#1E130B"/><ellipse cx="1380" cy="810" rx="58" ry="80" fill="#3A2415"/><rect x="1322" y="780" width="116" height="8" fill="#1E130B"/><rect x="1322" y="834" width="116" height="8" fill="#1E130B"/><rect width="1600" height="900" fill="url(#r17)"/></svg>